<svg xmlns="http://www.w3.org/2000/svg" width="30" height="32" fill="none"><path fill="#FFC107" d="M28.843 12.63H27.67v-.066H14.563v6.283h8.23c-1.2 3.657-4.427 6.282-8.23 6.282-4.825 0-8.738-4.22-8.738-9.424s3.913-9.423 8.738-9.423c2.228 0 4.254.906 5.797 2.387l4.12-4.443C21.877 1.612 18.398 0 14.562 0 6.521 0 0 7.032 0 15.706 0 24.379 6.52 31.41 14.563 31.41c8.043 0 14.563-7.032 14.563-15.706 0-1.053-.1-2.08-.283-3.075Z"/><path fill="#FF3D00" d="m1.68 8.395 4.784 3.785c1.295-3.457 4.43-5.898 8.1-5.898 2.227 0 4.253.906 5.796 2.387l4.12-4.443C21.877 1.612 18.4 0 14.562 0 8.97 0 4.12 3.406 1.68 8.395Z"/><path fill="#4CAF50" d="M14.563 31.41c3.762 0 7.18-1.552 9.764-4.076L19.82 23.22c-1.512 1.239-3.358 1.91-5.257 1.908-3.788 0-7.004-2.605-8.216-6.24l-4.749 3.946c2.41 5.086 7.305 8.576 12.965 8.576Z"/><path fill="#1976D2" d="M28.843 12.63H27.67v-.066H14.563v6.282h8.23c-.574 1.74-1.608 3.262-2.976 4.375l.003-.001 4.507 4.113c-.319.312 4.8-3.775 4.8-11.628 0-1.053-.101-2.08-.284-3.076Z"/></svg>