<svg xmlns="http://www.w3.org/2000/svg" width="35" height="38" fill="none"><path fill="#212427" d="M17.476 26.7a2.81 2.81 0 0 0 2.06-.92 3.27 3.27 0 0 0 .852-2.222 3.27 3.27 0 0 0-.853-2.22 2.81 2.81 0 0 0-2.06-.92 2.81 2.81 0 0 0-2.059.92 3.27 3.27 0 0 0-.853 2.22c0 .833.307 1.632.853 2.221a2.81 2.81 0 0 0 2.06.92Zm8.738-14.136a2.81 2.81 0 0 1 2.06.92 3.27 3.27 0 0 1 .852 2.222V31.41a3.27 3.27 0 0 1-.853 2.221 2.81 2.81 0 0 1-2.06.92H8.739a2.81 2.81 0 0 1-2.06-.92 3.27 3.27 0 0 1-.853-2.221V15.705c0-.832.307-1.632.853-2.22a2.81 2.81 0 0 1 2.06-.92h1.456V9.422c0-2.082.767-4.08 2.133-5.552 1.366-1.473 3.218-2.3 5.149-2.3.956 0 1.903.203 2.786.597a7.272 7.272 0 0 1 2.363 1.703 7.92 7.92 0 0 1 1.578 2.547c.366.953.554 1.974.554 3.005v3.141h1.457Zm-8.738-7.852c-1.159 0-2.27.496-3.09 1.38-.819.883-1.28 2.082-1.28 3.331v3.141h8.739v-3.14c0-1.25-.46-2.449-1.28-3.332-.82-.884-1.93-1.38-3.09-1.38Z"/></svg>